<?xml version="1.0" encoding="UTF-8"?>
<svg width="35px" height="36px" viewBox="0 0 35 36" version="1.1" xmlns="http://www.w3.org/2000/svg" xmlns:xlink="http://www.w3.org/1999/xlink">
    <!-- Generator: Sketch 42 (36781) - http://www.bohemiancoding.com/sketch -->
    <title>Chess_kdt45</title>
    <desc>Created with Sketch.</desc>
    <defs></defs>
    <g id="Page-1" stroke="none" stroke-width="1" fill="none" fill-rule="evenodd">
        <g id="Chess_kdt45" transform="translate(0.000000, 1.000000)" stroke-width="1.5" stroke="#000000">
            <g id="Group">
                <path d="M17.5,5.63 L17.5,0" id="path6570" stroke-linecap="round"></path>
                <path d="M17.5,19 C17.5,19 22,11.5 20.5,8.5 C20.5,8.5 19.5,6 17.5,6 C15.5,6 14.5,8.5 14.5,8.5 C13,11.5 17.5,19 17.5,19" id="Shape" fill="#DF740C" fill-rule="nonzero"></path>
                <path d="M6.5,31 C12,34.5 22,34.5 27.5,31 L27.5,24 C27.5,24 36.5,19.5 33.5,13.5 C29.5,7 20,10 17.5,17.5 L17.5,21 L17.5,17.5 C14,10 4.5,7 1.5,13.5 C-1.5,19.5 6.5,23.5 6.5,23.5 L6.5,31 Z" id="Shape" stroke-linecap="round" stroke-linejoin="round" fill="#DF740C" fill-rule="nonzero"></path>
                <path d="M15,2 L20,2" id="Shape" stroke-linecap="round"></path>
                <path d="M6.5,24 C12,21 22,21 27.5,24 M6.5,27.5 C12,24.5 22,24.5 27.5,27.5 M6.5,31 C12,28 22,28 27.5,31" id="Shape" stroke-linecap="round" stroke-linejoin="round"></path>
            </g>
        </g>
    </g>
</svg>