<?xml version="1.0" encoding="UTF-8"?>
<svg width="39px" height="37px" viewBox="0 0 39 37" version="1.1" xmlns="http://www.w3.org/2000/svg" xmlns:xlink="http://www.w3.org/1999/xlink">
    <!-- Generator: Sketch 42 (36781) - http://www.bohemiancoding.com/sketch -->
    <title>Chess_qdt45</title>
    <desc>Created with Sketch.</desc>
    <defs></defs>
    <g id="Page-1" stroke="none" stroke-width="1" fill="none" fill-rule="evenodd">
        <g id="Chess_qdt45">
            <g id="Group">
                <g id="Oval" fill="#000000">
                    <circle cx="3" cy="7" r="2.75"></circle>
                    <circle cx="11" cy="4" r="2.75"></circle>
                    <circle cx="19.5" cy="3" r="2.75"></circle>
                    <circle cx="28" cy="4" r="2.75"></circle>
                    <circle cx="36" cy="7" r="2.75"></circle>
                </g>
                <path d="M6,21 C14.5,19.5 27,19.5 33,21 L35.5,8.5 L28,20 L27.7,5.9 L22.5,19.5 L19.5,5 L16.5,19.5 L11.3,5.9 L11,20 L3.5,8.5 L6,21 Z" id="Shape" stroke="#000000" stroke-width="1.5" stroke-linejoin="round" fill="#DF740C"></path>
                <path d="M6,21 C6,23 7.5,23 8.5,25 C9.5,26.5 9.5,26 9,28.5 C7.5,29.5 7.5,31 7.5,31 C6,32.5 8,33.5 8,33.5 C14.5,34.5 24.5,34.5 31,33.5 C31,33.5 32.5,32.5 31,31 C31,31 31.5,29.5 30,28.5 C29.5,26 29.5,26.5 30.5,25 C31.5,23 33,23 33,21 C24.5,19.5 14.5,19.5 6,21 Z" id="Shape" stroke="#000000" stroke-width="1.5" stroke-linejoin="round" fill="#DF740C"></path>
                <path d="M8,33.5 C15.4477597,36.0909742 23.5522403,36.0909742 31,33.5" id="Shape" stroke="#000000" stroke-width="1.5" stroke-linejoin="round"></path>
                <path d="M8,24 C15.4477597,21.4090258 23.5522403,21.4090258 31,24" id="Shape" stroke="#000000" stroke-width="1.5" stroke-linecap="round" stroke-linejoin="round"></path>
                <path d="M9.5,26.5 L29.5,26.5" id="Shape" stroke="#000000" stroke-width="1.5" stroke-linecap="round" stroke-linejoin="round"></path>
                <path d="M8.5,29.5 C15.642708,31.8646727 23.357292,31.8646727 30.5,29.5" id="Shape" stroke="#000000" stroke-width="1.5" stroke-linecap="round" stroke-linejoin="round"></path>
                <path d="M7.5,32.5 C15.2499728,35.3285807 23.7500272,35.3285807 31.5,32.5" id="Shape" stroke="#000000" stroke-width="1.5" stroke-linecap="round" stroke-linejoin="round"></path>
            </g>
        </g>
    </g>
</svg>