<?xml version="1.0" encoding="UTF-8"?>
<svg width="35px" height="36px" viewBox="0 0 35 36" version="1.1" xmlns="http://www.w3.org/2000/svg" xmlns:xlink="http://www.w3.org/1999/xlink">
    <!-- Generator: Sketch 42 (36781) - http://www.bohemiancoding.com/sketch -->
    <title>Chess_blt45</title>
    <desc>Created with Sketch.</desc>
    <defs></defs>
    <g id="Page-1" stroke="none" stroke-width="1" fill="none" fill-rule="evenodd">
        <g id="Chess_blt45" transform="translate(1.000000, 1.000000)" stroke-width="1.5" stroke="#000000">
            <g id="Group">
                <g fill-rule="nonzero" id="Shape" fill="#6FC3DF" stroke-linejoin="round">
                    <path d="M3,31 C6.39,30.03 13.11,31.43 16.5,29 C19.89,31.43 26.61,30.03 30,31 C30,31 31.65,31.54 33,33 C32.32,33.97 31.35,33.99 30,33.5 C26.61,32.53 19.89,33.96 16.5,32.5 C13.11,33.96 6.39,32.53 3,33.5 C1.646,33.99 0.677,33.97 0,33 C1.354,31.06 3,31 3,31 Z"></path>
                    <path d="M9,27 C11.5,29.5 21.5,29.5 24,27 C24.5,25.5 24,25 24,25 C24,22.5 21.5,21 21.5,21 C27,19.5 27.5,9.5 16.5,5.5 C5.5,9.5 6,19.5 11.5,21 C11.5,21 9,22.5 9,25 C9,25 8.5,25.5 9,27 Z"></path>
                    <path d="M19,3 C19,4.38071187 17.8807119,5.5 16.5,5.5 C15.1192881,5.5 14,4.38071187 14,3 C14,1.61928813 15.1192881,0.5 16.5,0.5 C17.8807119,0.5 19,1.61928813 19,3 L19,3 Z"></path>
                </g>
                <path d="M11.5,21 L21.5,21 M9,25 L24,25 M16.5,10.5 L16.5,15.5 M14,13 L19,13" id="Shape" stroke-linecap="round"></path>
            </g>
        </g>
    </g>
</svg>