<?xml version="1.0" encoding="UTF-8"?>
<svg width="34px" height="34px" viewBox="0 0 34 34" version="1.1" xmlns="http://www.w3.org/2000/svg" xmlns:xlink="http://www.w3.org/1999/xlink">
    <!-- Generator: Sketch 42 (36781) - http://www.bohemiancoding.com/sketch -->
    <title>Chess_nlt45</title>
    <desc>Created with Sketch.</desc>
    <defs></defs>
    <g id="Page-1" stroke="none" stroke-width="1" fill="none" fill-rule="evenodd" stroke-linecap="round" stroke-linejoin="round">
        <g id="Chess_nlt45" transform="translate(1.000000, 1.000000)" fill-rule="nonzero" stroke="#000000">
            <g id="Group">
                <path d="M16,3 C26.5,4 32.5,11 32,32 L9,32 C9,23 19,25.5 17,11" id="Shape" stroke-width="1.5" fill="#6FC3DF"></path>
                <path d="M18,11 C18.38,13.91 12.45,18.37 10,20 C7,22 7.18,24.34 5,24 C3.958,23.06 6.41,20.96 5,21 C4,21 5.19,22.23 4,23 C3,23 -0.003,24 -1.687539e-14,19 C-1.687539e-14,17 6,7 6,7 C6,7 7.89,5.1 8,3.5 C7.27,2.506 7.5,1.5 7.5,0.5 C8.5,-0.5 10.5,3 10.5,3 L12.5,3 C12.5,3 13.28,1.008 15,0 C16,0 16,3 16,3" id="Shape" stroke-width="1.5" fill="#6FC3DF"></path>
                <path d="M3.5,18.5 C3.5,18.7761424 3.27614237,19 3,19 C2.72385763,19 2.5,18.7761424 2.5,18.5 C2.5,18.2238576 2.72385763,18 3,18 C3.27614237,18 3.5,18.2238576 3.5,18.5 Z" id="Shape" stroke-width="1.5" fill="#000000"></path>
                <path d="M8.999989,8.5 C8.999989,9.3284089 8.7761363,9.999967 8.5,9.999967 C8.2238637,9.999967 8.000011,9.3284089 8.000011,8.5 C8.000011,7.6715911 8.2238637,7.000033 8.5,7.000033 C8.7761363,7.000033 8.999989,7.6715911 8.999989,8.5 L8.999989,8.5 Z" id="Shape" stroke-width="1.499967" fill="#000000" transform="translate(8.500000, 8.500000) rotate(30.000728) translate(-8.500000, -8.500000) "></path>
            </g>
        </g>
    </g>
</svg>