<?xml version="1.0" encoding="UTF-8"?>
<svg width="26px" height="33px" viewBox="0 0 26 33" version="1.1" xmlns="http://www.w3.org/2000/svg" xmlns:xlink="http://www.w3.org/1999/xlink">
    <!-- Generator: Sketch 42 (36781) - http://www.bohemiancoding.com/sketch -->
    <title>Chess_plt45</title>
    <desc>Created with Sketch.</desc>
    <defs></defs>
    <g id="Page-1" stroke="none" stroke-width="1" fill="none" fill-rule="evenodd" stroke-linecap="round">
        <g id="Chess_plt45" transform="translate(1.000000, 1.000000)" stroke="#000000" fill-rule="nonzero" stroke-width="1.5" fill="#6FC3DF">
            <path d="M12,0 C9.79,0 8,1.79 8,4 C8,4.89 8.29,5.71 8.78,6.38 C6.83,7.5 5.5,9.59 5.5,12 C5.5,14.03 6.44,15.84 7.91,17.03 C4.91,18.09 0.5,22.58 0.5,30.5 L23.5,30.5 C23.5,22.58 19.09,18.09 16.09,17.03 C17.56,15.84 18.5,14.03 18.5,12 C18.5,9.59 17.17,7.5 15.22,6.38 C15.71,5.71 16,4.89 16,4 C16,1.79 14.21,0 12,0 Z" id="Shape"></path>
        </g>
    </g>
</svg>