<?xml version="1.0" encoding="UTF-8"?>
<svg width="39px" height="36px" viewBox="0 0 39 36" version="1.1" xmlns="http://www.w3.org/2000/svg" xmlns:xlink="http://www.w3.org/1999/xlink">
    <!-- Generator: Sketch 42 (36781) - http://www.bohemiancoding.com/sketch -->
    <title>Chess_qlt45</title>
    <desc>Created with Sketch.</desc>
    <defs></defs>
    <g id="Page-1" stroke="none" stroke-width="1" fill="none" fill-rule="evenodd" stroke-linejoin="round">
        <g id="Chess_qlt45" transform="translate(1.000000, 1.000000)" stroke-width="1.5" stroke="#000000">
            <g id="Group">
                <path d="M4,7 C4,8.1045695 3.1045695,9 2,9 C0.8954305,9 0,8.1045695 0,7 C0,5.8954305 0.8954305,5 2,5 C3.1045695,5 4,5.8954305 4,7 Z" id="Shape" stroke-linecap="round" fill="#6FC3DF"></path>
                <path d="M20.5,2.5 C20.5,3.6045695 19.6045695,4.5 18.5,4.5 C17.3954305,4.5 16.5,3.6045695 16.5,2.5 C16.5,1.3954305 17.3954305,0.5 18.5,0.5 C19.6045695,0.5 20.5,1.3954305 20.5,2.5 Z" id="Shape" stroke-linecap="round" fill="#6FC3DF"></path>
                <path d="M37,7 C37,8.1045695 36.1045695,9 35,9 C33.8954305,9 33,8.1045695 33,7 C33,5.8954305 33.8954305,5 35,5 C36.1045695,5 37,5.8954305 37,7 Z" id="Shape" stroke-linecap="round" fill="#6FC3DF"></path>
                <path d="M12,3.5 C12,4.6045695 11.1045695,5.5 10,5.5 C8.8954305,5.5 8,4.6045695 8,3.5 C8,2.3954305 8.8954305,1.5 10,1.5 C11.1045695,1.5 12,2.3954305 12,3.5 Z" id="Shape" stroke-linecap="round" fill="#6FC3DF"></path>
                <path d="M29,4 C29,5.1045695 28.1045695,6 27,6 C25.8954305,6 25,5.1045695 25,4 C25,2.8954305 25.8954305,2 27,2 C28.1045695,2 29,2.8954305 29,4 Z" id="Shape" stroke-linecap="round" fill="#6FC3DF"></path>
                <path d="M5,21 C13.5,19.5 26,19.5 32,21 L34,9 L27,20 L27,6 L21.5,19.5 L18.5,4.5 L15.5,19.5 L10,5.5 L10,20 L3,9 L5,21 Z" id="Shape" fill="#6FC3DF"></path>
                <path d="M5,21 C5,23 6.5,23 7.5,25 C8.5,26.5 8.5,26 8,28.5 C6.5,29.5 6.5,31 6.5,31 C5,32.5 7,33.5 7,33.5 C13.5,34.5 23.5,34.5 30,33.5 C30,33.5 31.5,32.5 30,31 C30,31 30.5,29.5 29,28.5 C28.5,26 28.5,26.5 29.5,25 C30.5,23 32,23 32,21 C23.5,19.5 13.5,19.5 5,21 Z" id="Shape" fill="#6FC3DF"></path>
                <path d="M7.5,25 C11,24 26,24 29.5,25" id="Shape" stroke-linecap="round"></path>
                <path d="M8,28.5 C14,27.5 23,27.5 29,28.5" id="Shape" stroke-linecap="round"></path>
            </g>
        </g>
    </g>
</svg>